<?xml version="1.0" ?><svg id="Layer_1" style="enable-background:new 0 0 100 100;" version="1.1" viewBox="0 0 100 100" xml:space="preserve" xmlns="http://www.w3.org/2000/svg" xmlns:xlink="http://www.w3.org/1999/xlink"><path d="M50,6.4c-17.1,0-31,13.9-31,31C19,54.3,31.1,61,36.6,72.1C43,85.2,42.1,93.6,50,93.6s6.9-8.4,13.4-21.5  C68.9,61,81,54.3,81,37.4C80.9,20.2,67.1,6.4,50,6.4z M50,11c13.6,0,24.8,10.3,26.2,23.5H62.4c-1.3-5.6-6.2-9.8-12.2-9.8  s-11,4.2-12.2,9.8H23.7C25.2,21.2,36.4,11,50,11z M56.9,37.2c0,3.8-3,6.8-6.8,6.8s-6.8-3-6.8-6.8s3-6.8,6.8-6.8S56.9,33.4,56.9,37.2  z M59.2,70c-2.2,4.6-3.6,8.6-4.8,11.8c-2.5,7.1-2.9,7.1-4.5,7.1s-2,0-4.5-7.1c-1.1-3.2-2.5-7.2-4.8-11.8c-2-4.2-4.8-7.7-7.5-11  c-4.5-5.6-8.7-10.9-9.5-19.1h14.2c1.3,5.6,6.2,9.8,12.2,9.8s11-4.2,12.2-9.8h13.9c-0.7,8.2-5,13.5-9.5,19.1  C64.1,62.4,61.3,65.9,59.2,70z"/></svg>